<svg xmlns="http://www.w3.org/2000/svg" viewBox="0 0 360 300" width="360" height="300" role="img" aria-label="Precision-recall curve, test_diagnostic, email level">
<style>
.axis{stroke:#666;stroke-width:1} .curve{fill:none;stroke:#2b6cb0;stroke-width:2} .mark{fill:#c05621}
text{font-family:sans-serif;font-size:11px;fill:#333} .label{font-size:10px}
</style>
<rect width="100%" height="100%" fill="#fff"/>
<line x1="44" y1="256" x2="316" y2="256" class="axis"/>
<line x1="44" y1="44" x2="44" y2="256" class="axis"/>
<text x="180.0" y="290" text-anchor="middle">Recall</text>
<text x="12" y="150.0" text-anchor="middle" transform="rotate(-90 12 150.0)">Precision</text>
<text x="44" y="270" text-anchor="middle">0</text><text x="316" y="270" text-anchor="middle">1</text>
<text x="36" y="48" text-anchor="end">1</text><text x="36" y="260" text-anchor="end">0</text>
<text x="180.0" y="18" text-anchor="middle">test_diagnostic, email level: AP 0.938 (88 pos / 256)</text>
<path d="M44.0,44.0 L47.1,44.0 L50.2,44.0 L53.3,44.0 L56.4,44.0 L59.5,44.0 L62.5,44.0 L65.6,44.0 L68.7,44.0 L71.8,44.0 L74.9,44.0 L78.0,44.0 L81.1,44.0 L84.2,44.0 L87.3,44.0 L90.4,44.0 L93.5,44.0 L96.5,44.0 L99.6,44.0 L102.7,44.0 L105.8,44.0 L108.9,44.0 L112.0,44.0 L115.1,44.0 L118.2,44.0 L121.3,44.0 L124.4,44.0 L127.5,44.0 L130.5,44.0 L133.6,44.0 L136.7,44.0 L139.8,44.0 L142.9,44.0 L146.0,44.0 L149.1,44.0 L152.2,44.0 L155.3,44.0 L158.4,44.0 L161.5,44.0 L164.5,44.0 L167.6,44.0 L170.7,44.0 L173.8,44.0 L176.9,44.0 L180.0,44.0 L183.1,44.0 L186.2,44.0 L189.3,44.0 L189.3,48.4 L192.4,48.3 L195.5,48.2 L195.5,52.3 L195.5,56.2 L195.5,60.0 L198.5,59.7 L201.6,59.4 L204.7,59.1 L207.8,58.9 L207.8,62.3 L207.8,65.6 L210.9,65.2 L214.0,64.9 L217.1,64.5 L220.2,64.2 L223.3,63.9 L223.3,66.8 L226.4,66.5 L229.5,66.1 L232.5,65.8 L235.6,65.5 L238.7,65.2 L238.7,67.9 L241.8,67.6 L244.9,67.2 L248.0,66.9 L251.1,66.6 L254.2,66.3 L257.3,66.0 L257.3,68.5 L257.3,70.8 L260.4,70.5 L263.5,70.2 L263.5,72.4 L266.5,72.1 L269.6,71.8 L272.7,71.4 L275.8,71.1 L275.8,73.2 L275.8,75.3 L278.9,75.0 L278.9,77.0 L282.0,76.6 L285.1,76.3 L285.1,78.2 L285.1,80.1 L285.1,81.9 L285.1,83.8 L285.1,85.5 L288.2,85.1 L291.3,84.7 L291.3,86.4 L294.4,86.0 L297.5,85.6 L297.5,87.2 L297.5,88.8 L300.5,88.4 L300.5,90.0 L303.6,89.6 L306.7,89.1 L309.8,88.7 L312.9,88.3 L312.9,89.8 L312.9,91.3 L312.9,92.8 L312.9,94.2 L312.9,95.6 L312.9,97.0 L312.9,98.4 L312.9,99.7 L312.9,101.0 L312.9,102.3 L312.9,103.6 L312.9,104.8 L312.9,106.0 L312.9,107.3 L312.9,108.4 L312.9,109.6 L312.9,110.8 L312.9,111.9 L312.9,113.0 L312.9,114.1 L312.9,115.2 L312.9,116.3 L312.9,117.3 L312.9,118.4 L312.9,119.4 L312.9,120.4 L312.9,121.4 L312.9,122.3 L312.9,123.3 L312.9,124.3 L312.9,125.2 L312.9,126.1 L312.9,127.0 L312.9,127.9 L312.9,128.8 L312.9,129.7 L312.9,130.5 L312.9,131.4 L316.0,130.8 L316.0,131.6 L316.0,132.5 L316.0,133.3 L316.0,134.1 L316.0,134.9 L316.0,135.6 L316.0,136.4 L316.0,137.2 L316.0,137.9 L316.0,138.7 L316.0,139.4 L316.0,140.1 L316.0,140.8 L316.0,141.5 L316.0,142.2 L316.0,142.9 L316.0,143.6 L316.0,144.3 L316.0,145.0 L316.0,145.6 L316.0,146.3 L316.0,146.9 L316.0,147.5 L316.0,148.2 L316.0,148.8 L316.0,149.4 L316.0,150.0 L316.0,150.6 L316.0,151.2 L316.0,151.8 L316.0,152.4 L316.0,152.9 L316.0,153.5 L316.0,154.1 L316.0,154.6 L316.0,155.2 L316.0,155.7 L316.0,156.2 L316.0,156.8 L316.0,157.3 L316.0,157.8 L316.0,158.3 L316.0,158.8 L316.0,159.3 L316.0,159.8 L316.0,160.3 L316.0,160.8 L316.0,161.3 L316.0,161.8 L316.0,162.3 L316.0,162.7 L316.0,163.2 L316.0,163.6 L316.0,164.1 L316.0,164.5 L316.0,165.0 L316.0,165.4 L316.0,165.9 L316.0,166.3 L316.0,166.7 L316.0,167.2 L316.0,167.6 L316.0,168.0 L316.0,168.4 L316.0,168.8 L316.0,169.2 L316.0,169.6 L316.0,170.0 L316.0,170.4 L316.0,170.8 L316.0,171.2 L316.0,171.6 L316.0,172.0 L316.0,172.3 L316.0,172.7 L316.0,173.1 L316.0,173.5 L316.0,173.8 L316.0,174.2 L316.0,174.5 L316.0,174.9 L316.0,175.2 L316.0,175.6 L316.0,175.9 L316.0,176.3 L316.0,176.6 L316.0,176.9 L316.0,177.3 L316.0,177.6 L316.0,177.9 L316.0,179.2 L316.0,180.5 L316.0,181.4 L316.0,181.7 L316.0,182.0 L316.0,182.3 L316.0,182.6 L316.0,182.8 L316.0,183.1" class="curve"/>
<circle cx="158.4" cy="44.0" r="5" class="mark"/><text x="152.4" y="62.0" class="label" text-anchor="end">T_warn</text>
</svg>
