<svg xmlns="http://www.w3.org/2000/svg" viewBox="0 0 360 300" width="360" height="300" role="img" aria-label="Precision-recall curve, validation_diagnostic, email level">
<style>
.axis{stroke:#666;stroke-width:1} .curve{fill:none;stroke:#2b6cb0;stroke-width:2} .mark{fill:#c05621}
text{font-family:sans-serif;font-size:11px;fill:#333} .label{font-size:10px}
</style>
<rect width="100%" height="100%" fill="#fff"/>
<line x1="44" y1="256" x2="316" y2="256" class="axis"/>
<line x1="44" y1="44" x2="44" y2="256" class="axis"/>
<text x="180.0" y="290" text-anchor="middle">Recall</text>
<text x="12" y="150.0" text-anchor="middle" transform="rotate(-90 12 150.0)">Precision</text>
<text x="44" y="270" text-anchor="middle">0</text><text x="316" y="270" text-anchor="middle">1</text>
<text x="36" y="48" text-anchor="end">1</text><text x="36" y="260" text-anchor="end">0</text>
<text x="180.0" y="18" text-anchor="middle">validation_diagnostic, email level: AP 0.949 (80 pos / 240)</text>
<path d="M44.0,44.0 L47.4,44.0 L50.8,44.0 L54.2,44.0 L57.6,44.0 L61.0,44.0 L64.4,44.0 L67.8,44.0 L71.2,44.0 L74.6,44.0 L78.0,44.0 L81.4,44.0 L84.8,44.0 L88.2,44.0 L91.6,44.0 L95.0,44.0 L98.4,44.0 L101.8,44.0 L105.2,44.0 L108.6,44.0 L112.0,44.0 L115.4,44.0 L118.8,44.0 L122.2,44.0 L125.6,44.0 L129.0,44.0 L132.4,44.0 L135.8,44.0 L139.2,44.0 L142.6,44.0 L146.0,44.0 L149.4,44.0 L152.8,44.0 L156.2,44.0 L159.6,44.0 L163.0,44.0 L166.4,44.0 L169.8,44.0 L169.8,49.6 L173.2,49.4 L176.6,49.3 L180.0,49.2 L183.4,49.0 L186.8,48.9 L190.2,48.8 L193.6,48.7 L197.0,48.6 L197.0,53.0 L200.4,52.8 L203.8,52.7 L203.8,56.7 L207.2,56.5 L210.6,56.2 L214.0,56.0 L217.4,55.8 L220.8,55.6 L224.2,55.4 L227.6,55.2 L231.0,55.0 L234.4,54.8 L234.4,58.1 L237.8,57.9 L241.2,57.7 L244.6,57.5 L248.0,57.2 L248.0,60.3 L251.4,60.1 L254.8,59.8 L254.8,62.7 L258.2,62.4 L258.2,65.2 L258.2,67.9 L261.6,67.6 L265.0,67.2 L268.4,66.9 L268.4,69.4 L271.8,69.1 L271.8,71.5 L275.2,71.2 L275.2,73.5 L275.2,75.8 L278.6,75.4 L278.6,77.6 L282.0,77.2 L282.0,79.3 L282.0,81.4 L285.4,81.0 L285.4,83.0 L288.8,82.5 L292.2,82.1 L292.2,84.0 L295.6,83.6 L299.0,83.2 L302.4,82.8 L305.8,82.3 L309.2,81.9 L309.2,83.8 L309.2,85.5 L309.2,87.3 L309.2,89.0 L309.2,90.6 L309.2,92.3 L312.6,91.8 L312.6,93.4 L316.0,92.9 L316.0,94.5 L316.0,96.0 L316.0,97.5 L316.0,99.0 L316.0,100.4 L316.0,101.8 L316.0,103.2 L316.0,104.6 L316.0,105.9 L316.0,107.2 L316.0,108.5 L316.0,109.8 L316.0,111.0 L316.0,112.3 L316.0,113.5 L316.0,114.7 L316.0,115.8 L316.0,117.0 L316.0,118.1 L316.0,119.2 L316.0,120.3 L316.0,121.4 L316.0,122.5 L316.0,123.5 L316.0,124.5 L316.0,125.5 L316.0,126.5 L316.0,127.5 L316.0,128.5 L316.0,129.4 L316.0,130.4 L316.0,131.3 L316.0,132.2 L316.0,133.1 L316.0,134.0 L316.0,134.9 L316.0,135.7 L316.0,136.6 L316.0,137.4 L316.0,138.2 L316.0,139.0 L316.0,139.8 L316.0,140.6 L316.0,141.4 L316.0,142.2 L316.0,142.9 L316.0,143.7 L316.0,144.4 L316.0,145.2 L316.0,145.9 L316.0,146.6 L316.0,147.3 L316.0,148.0 L316.0,148.7 L316.0,149.3 L316.0,150.0 L316.0,150.7 L316.0,151.3 L316.0,152.0 L316.0,152.6 L316.0,153.2 L316.0,153.8 L316.0,154.4 L316.0,155.0 L316.0,155.6 L316.0,156.2 L316.0,156.8 L316.0,157.4 L316.0,158.0 L316.0,158.5 L316.0,159.1 L316.0,159.6 L316.0,160.2 L316.0,160.7 L316.0,161.3 L316.0,161.8 L316.0,162.3 L316.0,162.8 L316.0,163.3 L316.0,163.8 L316.0,164.3 L316.0,164.8 L316.0,165.3 L316.0,165.8 L316.0,166.3 L316.0,166.7 L316.0,167.2 L316.0,167.7 L316.0,168.1 L316.0,168.6 L316.0,169.0 L316.0,169.5 L316.0,169.9 L316.0,170.3 L316.0,170.8 L316.0,171.2 L316.0,171.6 L316.0,172.0 L316.0,172.5 L316.0,172.9 L316.0,173.3 L316.0,173.7 L316.0,174.1 L316.0,174.5 L316.0,174.9 L316.0,175.2 L316.0,175.6 L316.0,176.0 L316.0,176.4 L316.0,176.7 L316.0,177.1 L316.0,177.5 L316.0,177.8 L316.0,178.2 L316.0,178.6 L316.0,178.9 L316.0,179.3 L316.0,179.6 L316.0,179.9 L316.0,180.3 L316.0,180.6 L316.0,182.3 L316.0,183.5 L316.0,183.8 L316.0,184.1 L316.0,184.4 L316.0,184.7 L316.0,185.0 L316.0,185.3" class="curve"/>
<circle cx="156.2" cy="44.0" r="5" class="mark"/><text x="150.2" y="62.0" class="label" text-anchor="end">T_warn</text>
</svg>
